<?xml version="1.0" encoding="UTF-8"?>
<svg id="Camada_2" data-name="Camada 2" xmlns="http://www.w3.org/2000/svg" viewBox="0 0 317.24 106.69">
  <defs>
    <style>
      .cls-1 {
        fill: #fff;
        stroke-width: 0px;
      }
    </style>
  </defs>
  <g id="Camada_1-2" data-name="Camada 1">
    <g>
      <path class="cls-1" d="m125.14.05c-.58.07-1.78.69-2.73,1.35-.91.69-2.73,1.89-4.04,2.65-1.31.8-2.69,1.78-3.05,2.22-.4.44-.84.76-1.02.76s-1.85,1.13-3.67,2.55c-1.85,1.38-4.07,3.27-4.95,4.18-.91.91-1.75,1.64-1.89,1.64s-1.53,1.27-3.09,2.84c-1.6,1.6-3.67,3.89-4.69,5.16-.98,1.27-2.76,3.53-3.89,5.02-1.16,1.53-2.11,2.87-2.11,3.05,0,.15-.33.29-.73.29s-.73.15-.73.29-.76.87-1.71,1.56c-.98.69-2.04,1.38-2.36,1.49-.33.15-1.56.98-2.73,1.89-1.16.87-2.62,1.93-3.24,2.29-.58.36-1.89,1.13-2.84,1.75-.95.58-2.15,1.45-2.62,1.89-.51.47-1.13.84-1.35.84-.25,0-1.27.65-2.25,1.49-.98.8-2.11,1.64-2.51,1.85-.44.22-1.35.87-2.04,1.42s-1.85,1.27-2.55,1.67c-.69.36-1.85,1.09-2.55,1.6s-2.33,1.45-3.64,2.15c-1.31.65-2.47,1.42-2.65,1.67-.15.25-.73.69-1.27.95-.55.29-1.31.73-1.71.95s-1.31.65-2,.98c-.69.29-2.33,1.2-3.64,1.96-1.31.8-2.76,1.64-3.27,1.85s-1.56.73-2.36,1.16-2,1.16-2.69,1.64-1.53.84-1.93.84c-.36,0-.95.15-1.31.33-.33.18-2.18,1.13-4.07,2.04-1.89.95-4.26,1.96-5.27,2.25-.98.25-2.15.65-2.55.8-.4.18-1.13.47-1.64.69-.51.18-1.38.55-2,.76-.58.22-2.04.65-3.2.95s-2.91.55-3.93.55-2.29-.25-2.84-.55c-.58-.29-1.53-1.13-2.11-1.89s-1.27-1.89-1.53-2.51c-.29-.76-.4-2.44-.29-5.09.11-2.18.33-4.69.51-5.6s.87-2.87,1.56-4.36c.69-1.49,1.82-3.56,2.51-4.55.69-1.02,1.53-2.15,1.85-2.55.36-.4,1.85-1.96,3.35-3.45,1.49-1.49,3.27-3.24,3.93-3.86.69-.62,2.58-2.07,4.18-3.24,1.6-1.2,4.58-3.27,6.62-4.66,2.07-1.35,4.47-2.8,5.38-3.2.87-.4,1.71-.87,1.82-1.05.15-.22.84-.65,1.56-1.02s2-1.05,2.8-1.53c.8-.44,2.65-1.45,4.11-2.22,1.42-.8,2.84-1.42,3.09-1.42s.8-.29,1.2-.65c.36-.36,1.85-1.09,3.24-1.67,1.42-.55,3.27-1.35,4.15-1.75.87-.36,2.36-.87,3.27-1.05.91-.22,2.29-.47,3.05-.58.8-.11,1.56,0,1.89.25.29.25.55.87.55,1.42,0,.51-.22,1.56-.51,2.36-.25.76-1.27,2.36-2.25,3.53-.98,1.16-2,2.11-2.25,2.11-.25.04-1.24.44-2.18.91-.95.47-2.55,1.09-3.56,1.35-1.75.4-1.96.4-2.98-.33-.58-.44-1.27-.8-1.53-.8-.22,0-.87.25-1.45.55-.87.47-1.09.8-1.09,1.82,0,.8.29,1.49.8,2,.58.51,1.27.73,2.55.73.98,0,2.04-.15,2.4-.33.33-.18,1.2-.51,1.93-.73.69-.22,1.53-.4,1.82-.4s1.24-.36,2.15-.84c.91-.44,2.44-1.38,3.38-2.07.98-.69,2.33-2.04,3.02-3.02.73-.98,1.6-2.55,2-3.42.47-1.09.69-2.47.69-4.26,0-2.44-.07-2.69-1.05-3.64s-1.2-.98-3.53-.84c-1.38.11-3.16.33-3.96.55-.8.18-2.25.73-3.27,1.16-.98.44-2.95,1.35-4.36,2.04-1.38.69-3.35,1.75-4.36,2.29-.98.58-3.16,1.75-4.8,2.58-1.67.84-3.02,1.67-3.02,1.85s-.33.33-.73.33-.73.18-.73.36c0,.22-.62.65-1.35.98-.76.36-1.93,1.09-2.62,1.67-.65.58-1.56,1.16-2.04,1.35-.44.18-2.91,1.71-5.46,3.45-2.58,1.71-5.89,4.07-7.38,5.2-1.49,1.13-3.42,2.73-4.29,3.53s-2.33,2.11-3.27,2.91c-.91.8-2.62,2.73-3.82,4.26-1.16,1.56-2.15,2.95-2.15,3.13s-.4.69-.91,1.16c-.51.47-.91,1.09-.91,1.35s-.22.84-.44,1.31c-.25.44-.58.87-.73.98-.11.11-.47.91-.8,1.82s-.58,2.15-.58,2.73c0,.62-.22,1.35-.47,1.6-.29.29-.44,1.78-.44,4.87.04,2.95.22,4.91.55,5.71.25.69.87,1.89,1.35,2.65s1.78,1.96,2.91,2.69c2,1.27,2.11,1.31,4.8,1.09,1.53-.11,3.16-.33,3.67-.55.51-.18,1.64-.55,2.55-.8s2.36-.76,3.24-1.16,3.13-1.27,5.02-1.96c1.93-.69,4.69-1.89,6.22-2.73,1.49-.8,2.98-1.6,3.31-1.78.33-.15,1.49-.65,2.58-1.13,1.09-.47,2.95-1.38,4.07-2.04,1.13-.62,2.44-1.27,2.91-1.42.47-.11,1.27-.62,1.82-1.09.58-.44,2.36-1.49,4-2.33,1.67-.84,3.93-2,5.02-2.62s2.07-1.24,2.11-1.42c.07-.18.36-.33.62-.33s.98-.4,1.56-.91c.62-.51,1.24-.91,1.45-.91.18,0,.73-.29,1.2-.69.47-.36,1.6-1.05,2.51-1.53.91-.51,2.33-1.35,3.16-1.89.87-.55,1.64-.98,1.78-.98.11,0,.65-.33,1.16-.76.55-.4,3.82-2.62,7.31-4.91,3.45-2.29,6.47-4.15,6.69-4.15s.84-.44,1.42-.98c.55-.51,1.09-.87,1.2-.76.11.07-.15,1.38-.58,2.87-.4,1.49-.91,2.98-1.09,3.31-.18.36-.33,1.31-.33,2.07s-.15,1.56-.36,1.67c-.18.11-.36,1.6-.36,3.27s.18,3.16.36,3.27c.22.11.36.55.36.98,0,.4.33,1.2.76,1.78.65.95.95,1.05,2.69,1.05,1.09,0,3.16-.4,4.62-.87,1.45-.47,3.71-1.31,5.02-1.82,1.31-.55,3.38-1.45,4.66-2.07,1.27-.58,2.4-1.05,2.51-1.05s-.58.87-1.56,1.96c-.98,1.09-1.93,2.18-2.15,2.44-.18.29-1.53,2.07-2.98,4s-3.09,3.78-3.64,4.15-1.64,1.31-2.4,2.15c-.76.8-1.78,2.36-2.25,3.42-.51,1.05-.91,2.47-.91,3.13s.25,1.42.55,1.67c.33.29.98.36,1.67.22.65-.11,1.45-.55,1.82-.98.36-.4,1.67-2.22,2.95-4.04,1.27-1.82,3.31-4.66,4.51-6.29,1.24-1.64,2.44-3.35,2.65-3.78.25-.44,1.75-2.36,3.31-4.33,1.56-1.93,4-4.66,5.35-6,1.35-1.38,4.66-4.22,7.35-6.36s5.13-4.33,5.42-4.87c.44-.76.51-1.24.22-2-.18-.58-.65-1.05-1.05-1.13-.47-.04-2.44,1.31-5.56,3.96-2.69,2.18-6.33,4.91-8.11,6-1.78,1.09-3.45,1.96-3.67,1.96s-1.64.69-3.16,1.49c-1.53.84-3.35,1.89-4.04,2.36s-1.6.87-2,.87-1.13.22-1.64.47-1.78.76-2.87,1.13c-1.13.36-2.36.55-2.98.4-.84-.18-1.09-.47-1.27-1.45-.11-.69-.15-2.55-.07-4.07.07-1.56.51-4.07.98-5.56.44-1.49.98-3.02,1.16-3.35.18-.36.33-.84.33-1.02,0-.22.65-1.75,1.45-3.38.95-1.93,1.89-3.27,2.65-3.82.62-.47,2.07-1.49,3.16-2.29,1.09-.84,2.33-1.78,2.73-2.15s1.42-1.35,2.29-2.15c.84-.84,1.71-1.49,1.89-1.49s.55-.22.8-.47.98-.76,1.56-1.13c.62-.4,1.75-1.42,2.51-2.29.76-.84,1.6-1.56,1.85-1.56s1.16-.73,2.04-1.56c.87-.87,1.85-1.75,2.22-1.93.33-.18,1.93-1.56,3.56-3.05,1.64-1.49,3.67-3.45,4.58-4.29.87-.87,1.89-2.07,2.22-2.65.36-.58.76-1.05.91-1.05s.29-.8.29-1.78c0-1.09-.18-1.82-.44-1.93-.25-.07-.95-.07-1.53,0Zm-15.13,15.35c0,.18-.4.55-.87.8s-1.89,1.42-3.16,2.55c-1.27,1.16-2.84,2.58-3.49,3.2-.62.58-1.31,1.09-1.53,1.09s-.4-.15-.4-.29c0-.18.69-.95,1.53-1.75.87-.76,2.76-2.44,4.29-3.67,1.49-1.27,2.95-2.29,3.2-2.29.22,0,.44.15.44.36Z"/>
      <path class="cls-1" d="m175.66,4.16c-.4.15-1.16.29-1.71.29-.55.04-2.22.44-3.71.91-1.49.51-3.16,1.13-3.75,1.45-.55.29-1.71,1.2-2.55,1.96-.87.8-1.56,1.56-1.56,1.71s-.29.69-.69,1.2c-.36.55-.95,2-1.27,3.27s-.58,3.42-.58,4.76.25,3.24.58,4.15c.33.95,1.16,2.33,1.93,3.09s1.64,1.56,2.04,1.82,1.24.76,1.82,1.16c.62.4,1.42,1.38,1.78,2.18.62,1.31.65,1.64.25,2.76-.25.73-.36,1.38-.25,1.49.11.15.62-.15,1.13-.62.69-.65.91-1.24.91-2.4,0-.84-.22-2-.44-2.58-.25-.58-1.67-2.18-3.13-3.53-1.45-1.38-2.91-3.09-3.27-3.82-.36-.8-.62-2.15-.62-3.56,0-1.31.22-2.47.47-2.73.22-.22.44-.69.44-.98s.4-1.05.91-1.71c.51-.65.91-1.31.91-1.42,0-.15.51-.73,1.13-1.31.58-.55,2.29-1.6,3.78-2.33,1.45-.69,2.98-1.27,3.38-1.27.36,0,.8-.11.91-.22.15-.15,1.27-.29,2.51-.33,1.24,0,2.8.15,3.42.36.65.22,1.6.73,2.11,1.09.58.44.95,1.09.95,1.64,0,.51.25,1.38.58,2,.47.87.55,1.75.36,4.18-.11,1.71-.36,3.6-.55,4.18-.18.62-.51,1.82-.8,2.73-.25.91-.58,1.78-.76,1.96-.15.22-.29.73-.29,1.2s-.4,1.67-.91,2.73c-.51,1.02-.91,2.07-.91,2.33s-.33,1.05-.69,1.85c-.4.76-1.35,2.69-2.15,4.29-.76,1.6-1.56,3.24-1.78,3.64s-.87,1.71-1.42,2.87c-.58,1.2-1.64,2.76-2.36,3.45-.69.73-2,1.78-2.87,2.4-.84.58-2.44,1.64-3.53,2.25-1.09.65-2.84,1.89-3.86,2.76-1.05.87-2.51,2-3.27,2.55-.8.51-2.33,1.71-3.45,2.69-1.13.95-3.09,2.73-4.36,3.93s-2.51,2.36-2.73,2.58c-.25.25-1.42,1.53-2.62,2.91-1.2,1.35-2.51,2.8-2.95,3.2-.4.44-1.64,2.15-2.69,3.86-1.09,1.71-2.22,3.35-2.55,3.64-.29.29-1.2,2-1.96,3.82-.76,1.78-1.53,3.6-1.71,4s-.51,1.2-.73,1.82c-.22.58-.55,2-.73,3.09-.22,1.09-.44,2.51-.58,3.16-.11.62,0,2.29.25,3.64.22,1.49.87,3.31,1.49,4.4.76,1.35,1.31,1.89,1.82,1.89.44,0,1.38-.62,2.11-1.38.73-.73,1.82-2,2.4-2.8.62-.76,1.75-2.18,2.55-3.13.8-.91,1.93-2.33,2.55-3.09.58-.8,2.47-3.31,4.15-5.6,1.71-2.29,3.82-5.24,4.69-6.55.87-1.31,1.96-2.76,2.4-3.27.47-.51,1.16-1.49,1.53-2.18s1.16-1.93,1.78-2.69c.58-.8,1.38-2,1.75-2.73.4-.73,1.13-1.89,1.67-2.58.51-.69,1.27-1.85,1.64-2.55s1.42-2.29,2.29-3.53c.84-1.24,1.56-2.33,1.56-2.44s.98-1.75,2.18-3.64c1.2-1.93,2.18-3.56,2.18-3.71,0-.11.62-1.05,1.35-2.11s1.6-2.07,1.93-2.25,1.82-.91,3.31-1.64,4.07-1.64,5.78-2.07c2.11-.47,3.31-.62,3.71-.4.36.22.65.76.65,1.31,0,.51-.4,1.45-.84,2.07-.47.62-.98,1.53-1.09,2.04s-.73,1.42-1.31,2.07-1.42,2.07-1.82,3.2c-.44,1.13-.76,2.58-.76,3.27,0,.87.18,1.27.69,1.45.4.11,1.16.11,1.75-.04.55-.11,1.85-.47,2.84-.76,1.02-.29,2.47-.84,3.27-1.2.8-.33,3.24-1.49,5.42-2.58,2.18-1.05,4.44-2.33,5.02-2.8.95-.8,1.02-.8,1.02-.18,0,.36-.18.87-.36,1.05-.22.22-.36,1.49-.29,2.91l.11,2.51,1.24.11c.69.07,1.93-.15,2.73-.51.84-.33,2.22-.95,3.13-1.31.87-.4,2.62-1.42,3.82-2.29,1.2-.84,2.44-1.64,2.73-1.78s.87-.44,1.27-.69,1.31-.87,2.04-1.45c.73-.55,1.49-.98,1.67-.98.22,0,.58-.25.84-.55s.58-.55.76-.55c.15,0,.18.62.07,1.35-.11.76-.55,1.85-.95,2.44s-.8,1.82-.91,2.73c-.11,1.27,0,1.82.44,2.18.51.44,1.09.29,4.04-.87,1.89-.73,3.45-1.49,3.45-1.67s.33-.33.69-.33c.4,0,.95-.29,1.2-.65.25-.33,1.13-.95,1.93-1.35s2.8-1.6,4.44-2.65c1.67-1.02,3.09-1.89,3.2-1.89s.18.33.18.73-.11.73-.29.73c-.15,0-.55.95-.91,2.07-.36,1.16-.62,2.76-.55,3.56.07,1.05.29,1.49.8,1.56.36.07,2.98-1.02,5.82-2.47,2.8-1.42,5.53-2.84,6.04-3.09s1.49-.73,2.18-1.02,1.78-.76,2.36-1.02c.62-.29,1.96-1.05,3.02-1.71,1.35-.84,1.89-1.02,1.89-.65,0,.29-.58,1.38-1.27,2.44-.69,1.09-1.27,2.22-1.27,2.58,0,.33-.15.73-.36.84-.18.11-.36,1.02-.36,2,0,1.42.15,1.89.69,2.18.47.25.8.25.95,0,.11-.18,1.02-.36,1.96-.36,1.09,0,1.93-.22,2.18-.51s1.16-.87,2.04-1.27c.91-.44,2.04-.76,2.55-.76s.91.18.91.36c0,.22-.4.58-.91.8s-.91.55-.91.69c0,.18-.4.51-.87.76s-1.89,1.38-3.16,2.47c-1.24,1.09-3.35,3.09-4.66,4.44-1.31,1.31-2.98,3.05-3.67,3.86-.69.8-1.85,2.29-2.55,3.31-.69,1.05-1.53,2.18-1.85,2.51s-.91,1.35-1.31,2.25c-.44.91-.95,2.25-1.16,2.98-.22.76-.55,1.93-.76,2.58-.18.65-.36,2.36-.36,3.82,0,1.96.22,3.09.95,4.76.51,1.2,1.2,2.25,1.49,2.36s.87.04,1.31-.22c.44-.22,1.71-1.13,2.8-2,1.09-.87,2.51-2.18,3.16-2.95.65-.73,2.04-2.29,3.09-3.45s2.07-2.4,2.25-2.73.69-.98,1.13-1.42,1.93-2.33,3.35-4.18c1.38-1.85,3.24-4.36,4.15-5.56.87-1.2,2.44-3.49,3.45-5.09s2.22-3.75,2.69-4.73c.62-1.24.87-2.44.87-3.71-.04-1.13-.33-2.33-.73-3.05-.36-.62-.95-1.27-1.24-1.45-.29-.15-.87-.4-1.27-.55s-1.02-.22-1.35-.18c-.36.04-.65-.07-.65-.22,0-.18,1.13-1.45,2.51-2.87,1.35-1.38,2.87-3.2,3.38-3.96.47-.8,1.09-2.22,1.38-3.16.36-1.38.36-1.96,0-2.84-.4-1.02-.58-1.09-2.22-1.09-.98,0-2.36.25-3.13.58s-1.71.73-2.11.87c-.4.18-1.38.58-2.18.91-.8.36-1.89,1.05-2.44,1.53-.58.58-1.2.84-1.64.69-.36-.11-.91-.04-1.2.15-.33.18-.69.18-.98-.07-.33-.25-.69-.22-1.27.18-.47.29-1.16.84-1.56,1.2-.4.4-1.45,1.09-2.36,1.56-.91.51-2.15,1.27-2.76,1.75s-1.27.84-1.49.84c-.18,0-2.15.91-4.29,2-2.18,1.09-4.07,2.18-4.22,2.44-.22.33-.4.33-.65.11-.22-.22-.11-.8.29-1.64.33-.69.8-1.96,1.05-2.8.4-1.31.36-1.75-.11-2.87-.51-1.27-.62-1.31-2-1.13-.8.11-1.56.04-1.67-.15s-.33-.33-.55-.33c-.18,0-.69.36-1.13.8s-2.76,2.15-5.2,3.75c-2.4,1.64-5.13,3.42-6.07,3.96s-1.89.95-2.11.87c-.18-.07.04-.91.55-1.89.51-.98.91-2.25.91-2.84,0-.55-.15-1.02-.36-1.02-.18,0-.36-.22-.36-.47,0-.29-.44-.69-.95-.91-.65-.33-1.13-.33-1.64-.07-.47.25-.91.25-1.38.04-.51-.29-1.05-.18-2.25.47-.87.44-2.55,1.42-3.67,2.15-1.13.76-2.22,1.35-2.36,1.35s-.87.58-1.56,1.27-1.38,1.27-1.6,1.27c-.18,0-.62.22-.91.47-.33.29-1.16.73-1.85.98-.69.29-1.45.76-1.71,1.09-.4.47-.44.47-.47-.07,0-.36.33-1.16.73-1.82s1.05-2.29,1.49-3.64c.4-1.35.69-2.76.62-3.09-.11-.55-.55-.65-2.29-.73-1.67-.04-2.33.11-2.91.65-.4.36-1.13,1.02-1.64,1.45-.51.4-1.45,1.2-2.15,1.71-.69.55-1.96,1.56-2.87,2.33-.87.73-2.11,1.56-2.76,1.85-.62.33-2.25,1.09-3.6,1.71-1.38.62-2.58,1.05-2.73.95-.11-.11.04-.51.33-.84.29-.36.69-.98.91-1.38s.98-1.82,1.71-3.16c.76-1.31,1.35-2.87,1.35-3.49,0-.58-.25-1.67-.55-2.4-.29-.69-.98-1.56-1.49-1.93-.65-.44-1.6-.58-3.16-.55-1.24.04-2.84.22-3.53.44-.69.18-2,.36-2.91.36s-1.82.15-2,.33c-.22.15-.8.4-1.35.55-.58.11-1.02.15-1.02,0,0-.11.29-.65.65-1.16.4-.55,1.09-1.82,1.64-2.8.51-1.02,1.6-3.31,2.44-5.09.84-1.82,1.67-3.64,1.85-4.11.18-.44.51-1.24.73-1.82.22-.55.55-1.24.69-1.53.15-.33.4-1.09.51-1.75.15-.62.44-1.24.62-1.35.18-.15.33-.69.33-1.27s.18-1.16.36-1.27c.22-.11.36-.95.36-1.85s.18-2,.4-2.4.47-2,.58-3.53c.15-2.11.04-3.35-.47-5.09-.47-1.6-1.09-2.73-2.04-3.71-.76-.76-1.93-1.53-2.73-1.75-.76-.22-2.76-.36-4.47-.33s-3.42.18-3.82.33Zm98.05,40.59c-.18.36-1.09,1.35-2,2.18s-2.04,1.71-2.47,1.96c-.47.25-1.27.91-1.85,1.45-.55.58-1.13,1.05-1.27,1.05s-.44-.15-.65-.29c-.29-.18-.18-.8.44-2.11.58-1.27,1.45-2.33,3.02-3.53,1.27-1.02,2.55-1.71,3.09-1.71.47,0,1.02-.18,1.16-.4.18-.29.36-.22.58.18.18.33.18.84-.04,1.2Zm-105.5,10.33c0,.22-.18.73-.44,1.16-.22.44-.65.98-.98,1.24-.33.22-.87,1.02-1.27,1.82-.36.76-.76,1.56-.91,1.78-.11.25-1.02,1.64-2,3.09-.98,1.49-1.85,2.98-1.96,3.31-.07.36-.29.65-.44.65s-.62.69-1.05,1.53c-.44.87-1.6,2.69-2.58,4.11-.98,1.38-3.2,4.62-4.91,7.13-1.71,2.51-3.42,4.87-3.82,5.24s-.73.8-.73.98c0,.22-.73,1.2-1.64,2.22-.91,1.05-1.64,2.04-1.64,2.22,0,.15-.51.91-1.13,1.64s-1.38,1.64-1.75,2.04c-.33.4-1.16,1.53-1.85,2.55-.69.98-1.75,2.36-2.33,3.02-.62.62-1.27,1.16-1.53,1.16s-.65-.87-.87-2.04c-.33-1.53-.33-2.62,0-4.62.25-1.45,1.02-4.11,1.67-5.89.69-1.82,1.78-4.26,2.4-5.49.65-1.2,1.96-3.31,2.87-4.73.91-1.38,3.05-4.07,4.76-5.96,1.71-1.89,4-4.36,5.09-5.49,1.13-1.13,3.6-3.35,5.56-4.91,1.93-1.6,4.04-3.24,4.66-3.67.65-.44,1.96-1.35,2.91-2s2.11-1.49,2.51-1.85c.44-.33.91-.62,1.09-.62.15,0,.29.18.29.4Zm105.39,3.13c.07,1.13-.18,2.04-1.02,3.64-.62,1.16-1.56,2.84-2.04,3.75-.51.91-1.31,2.04-1.75,2.55-.47.51-.95,1.16-1.05,1.45-.15.29-1.09,1.71-2.15,3.16-1.05,1.42-2.84,3.71-3.93,5.06-1.09,1.31-2.87,3.31-3.89,4.4-1.05,1.09-1.93,2.22-1.93,2.47,0,.29-.29.58-.62.73-.36.11-1.09.58-1.64,1.09-.58.47-1.02,1.02-1.02,1.2,0,.15-.47.65-1.09,1.09-.58.44-1.2.8-1.38.8s-.44-1.13-.58-2.51c-.18-1.93-.11-2.84.36-4.07.33-.87.76-1.75.95-1.96.15-.18.29-.69.29-1.09,0-.44.62-1.78,1.38-3.02.73-1.2,1.85-2.84,2.44-3.56.62-.73,2.22-2.62,3.6-4.22,1.35-1.56,4.22-4.44,6.36-6.33,2.11-1.93,4-3.75,4.15-4,.15-.29.58-.51.95-.51s1.02-.4,1.49-.91,1.13-.87,1.45-.84c.36.07.58.62.65,1.64Z"/>
      <path class="cls-1" d="m309.16,47.73c-.44.47-.58,1.16-.51,2.07.07.95.4,1.56,1.09,2.07.8.58,1.09.65,1.53.29.36-.29,1.2-.36,2.65-.22,1.89.22,2.18.18,2.84-.55.51-.55.58-.91.33-1.35-.18-.29-1.24-1.02-2.33-1.6-1.38-.73-2.29-.98-2.98-.87-.51.15-1.05.04-1.2-.15-.11-.22-.36-.4-.51-.4s-.58.33-.91.69Z"/>
      <path class="cls-1" d="m127.91,60.79c-.44.07-.98.44-1.16.8-.22.4-.8,1.13-1.27,1.6-.51.51-.91,1.24-.91,1.6,0,.4.22.91.51,1.13.25.22.8.29,1.16.15s.91-.44,1.24-.69c.29-.25,1.09-.91,1.75-1.42.69-.58,1.16-1.31,1.16-1.78,0-.51-.33-.95-.8-1.16s-1.2-.29-1.67-.22Z"/>
      <path class="cls-1" d="m50.81,65.3c-.25.25-.44,1.05-.44,1.82,0,1.27.07,1.38,1.56,1.78.84.22,1.96.62,2.51.91.8.4,1.31.44,2.73.11.95-.25,2.69-.69,3.86-1.02,1.49-.4,2.07-.73,2.07-1.2,0-.33-.18-.73-.4-.84-.22-.15-1.38-.25-2.62-.25s-2.91-.22-3.71-.51c-.8-.25-1.82-.51-2.25-.51s-.91-.18-1.02-.36c-.11-.22-.58-.36-1.05-.36-.44,0-.98.18-1.24.44Z"/>
    </g>
  </g>
</svg>