<?xml version="1.0" encoding="UTF-8"?>
<svg xmlns="http://www.w3.org/2000/svg" viewBox="0 0 361 58">
  <defs>
    <style>
      .cls-1 {
        isolation: isolate;
      }

      .cls-2 {
        fill: #fff;
      }

      .cls-2, .cls-3 {
        stroke-width: 0px;
      }

      .cls-3 {
        fill: #cdb3b1;
        mix-blend-mode: multiply;
      }
    </style>
  </defs>
  <g class="cls-1">
    <g id="Camada_2" data-name="Camada 2">
      <g id="Camada_1-2" data-name="Camada 1">
        <rect class="cls-3" x="0" y="0" width="361" height="58" rx="29" ry="29"/>
        <g>
          <path class="cls-2" d="m76.1,38.13h-3.65v-14.65c0-1.75.04-3.13.12-4.16-.24.25-.53.52-.88.82-.35.3-1.51,1.25-3.48,2.85l-1.83-2.31,6.67-5.24h3.04v22.68Z"/>
          <path class="cls-2" d="m94.24,38.13h-3.65v-14.65c0-1.75.04-3.13.12-4.16-.24.25-.53.52-.88.82-.35.3-1.51,1.25-3.48,2.85l-1.83-2.31,6.67-5.24h3.04v22.68Z"/>
          <path class="cls-2" d="m102.34,36.19c0-.75.2-1.33.59-1.74.39-.4.96-.61,1.71-.61s1.33.21,1.72.63c.39.42.59.99.59,1.71s-.2,1.32-.6,1.75c-.4.43-.97.64-1.71.64s-1.31-.21-1.71-.64c-.39-.42-.59-1.01-.59-1.75Z"/>
          <path class="cls-2" d="m134,25.13c0,4.47-.9,7.8-2.7,10.01-1.8,2.2-4.51,3.3-8.13,3.3-1.38,0-2.36-.08-2.96-.25v-3.06c.92.26,1.85.39,2.78.39,2.46,0,4.3-.66,5.51-1.99,1.21-1.32,1.87-3.4,1.99-6.24h-.19c-.61.93-1.35,1.6-2.21,2.02-.86.41-1.87.62-3.03.62-2.01,0-3.58-.63-4.73-1.88-1.15-1.25-1.72-2.97-1.72-5.15,0-2.37.66-4.25,1.99-5.66,1.33-1.4,3.14-2.1,5.44-2.1,1.61,0,3.02.39,4.22,1.18,1.2.79,2.13,1.93,2.78,3.42.65,1.49.98,3.29.98,5.38Zm-7.91-6.95c-1.26,0-2.23.41-2.9,1.23s-1.01,1.98-1.01,3.47c0,1.29.31,2.31.94,3.05s1.57,1.11,2.85,1.11,2.27-.37,3.1-1.1c.84-.73,1.26-1.59,1.26-2.58,0-.92-.18-1.78-.54-2.58-.36-.8-.86-1.43-1.5-1.9-.64-.46-1.38-.7-2.2-.7Z"/>
          <path class="cls-2" d="m159.57,20.66c0,1.44-.42,2.63-1.26,3.59-.84.96-2.02,1.6-3.54,1.93v.12c1.82.23,3.19.79,4.1,1.7.91.91,1.37,2.11,1.37,3.61,0,2.18-.77,3.87-2.31,5.05s-3.73,1.78-6.58,1.78c-2.51,0-4.63-.41-6.36-1.23v-3.24c.96.48,1.98.84,3.06,1.1,1.08.26,2.11.39,3.1.39,1.76,0,3.07-.33,3.94-.98.87-.65,1.3-1.66,1.3-3.03,0-1.21-.48-2.1-1.44-2.67-.96-.57-2.47-.85-4.53-.85h-1.97v-2.96h2c3.62,0,5.43-1.25,5.43-3.75,0-.97-.32-1.72-.95-2.25-.63-.53-1.56-.79-2.79-.79-.86,0-1.69.12-2.48.37-.8.24-1.74.72-2.82,1.42l-1.78-2.54c2.08-1.53,4.49-2.3,7.25-2.3,2.29,0,4.07.49,5.35,1.47,1.28.98,1.92,2.34,1.92,4.06Z"/>
          <path class="cls-2" d="m165.76,38.13l8.97-19.44h-11.79v-3.21h15.69v2.54l-8.92,20.11h-3.94Z"/>
          <path class="cls-2" d="m192.03,38.13h-3.65v-14.65c0-1.75.04-3.13.12-4.16-.24.25-.53.52-.88.82-.35.3-1.51,1.25-3.48,2.85l-1.83-2.31,6.67-5.24h3.04v22.68Z"/>
          <path class="cls-2" d="m199.52,28.46c0-8.87,3.61-13.31,10.84-13.31,1.14,0,2.1.09,2.89.26v3.04c-.79-.23-1.7-.34-2.73-.34-2.43,0-4.26.65-5.48,1.95-1.22,1.3-1.88,3.39-1.99,6.27h.19c.49-.84,1.17-1.49,2.05-1.95s1.91-.69,3.1-.69c2.06,0,3.66.63,4.81,1.89,1.15,1.26,1.72,2.97,1.72,5.14,0,2.38-.66,4.26-1.99,5.64-1.33,1.38-3.14,2.07-5.44,2.07-1.62,0-3.04-.39-4.24-1.17-1.2-.78-2.12-1.92-2.77-3.41-.65-1.49-.97-3.29-.97-5.39Zm7.91,6.97c1.25,0,2.22-.4,2.89-1.21.68-.81,1.02-1.96,1.02-3.46,0-1.3-.32-2.33-.95-3.07-.64-.75-1.59-1.12-2.86-1.12-.79,0-1.51.17-2.17.5-.66.34-1.18.8-1.57,1.38-.38.58-.57,1.18-.57,1.79,0,1.46.4,2.69,1.19,3.69.79,1,1.8,1.5,3.03,1.5Z"/>
          <path class="cls-2" d="m225.91,28.46c0-8.87,3.61-13.31,10.84-13.31,1.14,0,2.1.09,2.89.26v3.04c-.79-.23-1.7-.34-2.73-.34-2.43,0-4.26.65-5.48,1.95-1.22,1.3-1.88,3.39-1.99,6.27h.19c.49-.84,1.17-1.49,2.05-1.95s1.91-.69,3.1-.69c2.06,0,3.66.63,4.81,1.89,1.15,1.26,1.72,2.97,1.72,5.14,0,2.38-.66,4.26-1.99,5.64-1.33,1.38-3.14,2.07-5.44,2.07-1.62,0-3.04-.39-4.24-1.17-1.2-.78-2.12-1.92-2.77-3.41-.65-1.49-.97-3.29-.97-5.39Zm7.91,6.97c1.25,0,2.22-.4,2.89-1.21.68-.81,1.02-1.96,1.02-3.46,0-1.3-.32-2.33-.95-3.07-.64-.75-1.59-1.12-2.86-1.12-.79,0-1.51.17-2.17.5-.66.34-1.18.8-1.57,1.38-.38.58-.57,1.18-.57,1.79,0,1.46.4,2.69,1.19,3.69.79,1,1.8,1.5,3.03,1.5Z"/>
          <path class="cls-2" d="m259.33,25.13c0,4.47-.9,7.8-2.7,10.01-1.8,2.2-4.51,3.3-8.13,3.3-1.38,0-2.36-.08-2.96-.25v-3.06c.92.26,1.85.39,2.78.39,2.46,0,4.3-.66,5.51-1.99,1.21-1.32,1.87-3.4,1.99-6.24h-.19c-.61.93-1.35,1.6-2.21,2.02-.86.41-1.87.62-3.03.62-2.01,0-3.58-.63-4.73-1.88-1.15-1.25-1.72-2.97-1.72-5.15,0-2.37.66-4.25,1.99-5.66,1.33-1.4,3.14-2.1,5.44-2.1,1.61,0,3.02.39,4.22,1.18,1.2.79,2.13,1.93,2.78,3.42.65,1.49.98,3.29.98,5.38Zm-7.91-6.95c-1.26,0-2.23.41-2.9,1.23s-1.01,1.98-1.01,3.47c0,1.29.31,2.31.94,3.05s1.57,1.11,2.85,1.11,2.27-.37,3.1-1.1c.84-.73,1.26-1.59,1.26-2.58,0-.92-.18-1.78-.54-2.58-.36-.8-.86-1.43-1.5-1.9-.64-.46-1.38-.7-2.2-.7Z"/>
          <path class="cls-2" d="m262.19,28.46c0-8.87,3.61-13.31,10.84-13.31,1.14,0,2.1.09,2.89.26v3.04c-.79-.23-1.7-.34-2.73-.34-2.43,0-4.26.65-5.48,1.95-1.22,1.3-1.88,3.39-1.99,6.27h.19c.49-.84,1.17-1.49,2.05-1.95s1.91-.69,3.1-.69c2.06,0,3.66.63,4.81,1.89,1.15,1.26,1.72,2.97,1.72,5.14,0,2.38-.66,4.26-1.99,5.64-1.33,1.38-3.14,2.07-5.44,2.07-1.62,0-3.04-.39-4.24-1.17-1.2-.78-2.12-1.92-2.77-3.41-.65-1.49-.97-3.29-.97-5.39Zm7.91,6.97c1.25,0,2.22-.4,2.89-1.21.68-.81,1.02-1.96,1.02-3.46,0-1.3-.32-2.33-.95-3.07-.64-.75-1.59-1.12-2.86-1.12-.79,0-1.51.17-2.17.5-.66.34-1.18.8-1.57,1.38-.38.58-.57,1.18-.57,1.79,0,1.46.4,2.69,1.19,3.69.79,1,1.8,1.5,3.03,1.5Z"/>
          <path class="cls-2" d="m295.63,26.79c0,3.94-.63,6.87-1.9,8.78-1.27,1.91-3.2,2.87-5.81,2.87s-4.44-.99-5.74-2.96-1.95-4.87-1.95-8.69c0-4,.63-6.95,1.9-8.85,1.27-1.9,3.2-2.85,5.79-2.85s4.45.99,5.76,2.98,1.95,4.89,1.95,8.72Zm-11.71,0c0,3.09.32,5.3.95,6.62.64,1.32,1.65,1.99,3.05,1.99s2.42-.67,3.06-2.02c.65-1.34.97-3.54.97-6.59s-.32-5.24-.97-6.6c-.65-1.36-1.67-2.04-3.06-2.04s-2.41.67-3.05,2c-.64,1.33-.95,3.55-.95,6.64Z"/>
        </g>
      </g>
    </g>
  </g>
</svg>