<?xml version="1.0" encoding="UTF-8"?>
<svg id="Camada_2" data-name="Camada 2" xmlns="http://www.w3.org/2000/svg" viewBox="0 0 23.28 23.32">
  <defs>
    <style>
      .cls-1 {
        fill: #fff;
        stroke-width: 0px;
      }
    </style>
  </defs>
  <g id="Camada_1-2" data-name="Camada 1">
    <path class="cls-1" d="m23.26,6.86c-.03-.7-.11-1.28-.22-1.78l-.17.17c.05-.06.11-.12.16-.18-.09-.38-.19-.72-.32-1.04-.15-.4-.35-.78-.58-1.13-.22-.34-.48-.65-.77-.94-.58-.59-1.29-1.05-2.06-1.34-.74-.29-1.59-.49-2.83-.54-1.25-.06-1.64-.07-4.81-.07s-3.56.01-4.81.07c-1.24.05-2.09.26-2.83.54-.78.3-1.49.75-2.07,1.35-.29.29-.56.61-.78.96-.23.35-.42.72-.56,1.11-.13.33-.23.68-.32,1.07.51.55.88.94,1.89,1.96.33.33.73.73,1.22,1.23,2.24,2.24,2.53,2.51,3.45,3.35.91.84,1.66,1.3,2.38,1.62,1.54.68,3.29.68,4.83,0,.73-.32,1.47-.78,2.38-1.62.21-.2.39-.36.57-.53l4.14-4.14s0,0,0,0c.05,1.23.07,1.6.07,4.71s-.01,3.48-.07,4.71c-.05,1.14-.24,1.75-.4,2.16-.39,1.02-1.2,1.82-2.21,2.21-.41.16-1.03.35-2.16.4-1.23.05-1.6.07-4.71.07s-3.49-.01-4.71-.07c-1.14-.05-1.75-.24-2.16-.4-.51-.19-.97-.48-1.34-.87-.39-.38-.68-.83-.87-1.34-.16-.41-.35-1.03-.4-2.16-.05-1.23-.07-1.6-.07-4.71s.01-3.47.06-4.62l-1.9-1.9c-.1.48-.18,1.04-.21,1.7-.06,1.25-.07,1.64-.07,4.81s.01,3.56.07,4.81c.05,1.24.26,2.09.54,2.83.3.78.76,1.49,1.35,2.07.58.59,1.29,1.05,2.06,1.34.74.29,1.59.49,2.83.54,1.24.05,1.64.07,4.81.07s3.56-.01,4.81-.07c1.24-.05,2.09-.25,2.83-.54,1.57-.61,2.81-1.85,3.41-3.41.29-.74.49-1.59.54-2.83.01-.29.02-.53.03-.78V7.41c0-.17-.01-.35-.02-.56Zm-4.85-.06c-2.2,2.2-2.47,2.45-3.38,3.28-.84.77-1.41,1.07-1.81,1.25-1,.44-2.14.44-3.13,0-.4-.18-.98-.48-1.81-1.25-.91-.83-1.18-1.08-3.38-3.28-1.15-1.15-1.76-1.77-2.21-2.23.19-.41.44-.79.78-1.11.38-.39.83-.68,1.34-.87.41-.16,1.03-.35,2.16-.4,1.23-.05,1.6-.07,4.71-.07s3.49.01,4.71.07c1.14.05,1.75.24,2.16.4.51.19.97.48,1.34.87.32.31.57.68.76,1.08-.45.47-1.07,1.09-2.24,2.26Z"/>
  </g>
</svg>