<?xml version="1.0" encoding="UTF-8"?>
<svg id="Camada_2" data-name="Camada 2" xmlns="http://www.w3.org/2000/svg" viewBox="0 0 23.32 23.32">
  <defs>
    <style>
      .cls-1 {
        fill: #fff;
        stroke-width: 0px;
      }
    </style>
  </defs>
  <g id="Camada_1-2" data-name="Camada 1">
    <g>
      <path class="cls-1" d="m23.26,6.86c-.05-1.24-.25-2.09-.54-2.83-.3-.78-.75-1.49-1.35-2.07-.58-.59-1.29-1.05-2.06-1.34-.74-.29-1.59-.49-2.83-.54-1.25-.06-1.64-.07-4.81-.07s-3.56.01-4.81.07c-1.24.05-2.09.26-2.83.54-.78.3-1.49.75-2.07,1.35-.59.58-1.05,1.29-1.34,2.06-.29.74-.49,1.59-.54,2.83-.06,1.25-.07,1.64-.07,4.81s.01,3.56.07,4.81c.05,1.24.26,2.09.54,2.83.3.78.76,1.49,1.35,2.07.58.59,1.29,1.05,2.06,1.34.74.29,1.59.49,2.83.54,1.24.05,1.64.07,4.81.07s3.56-.01,4.81-.07c1.24-.05,2.09-.25,2.83-.54,1.57-.61,2.81-1.85,3.41-3.41.29-.74.49-1.59.54-2.83.05-1.24.07-1.64.07-4.81s0-3.56-.06-4.81h0Zm-2.1,9.52c-.05,1.14-.24,1.75-.4,2.16-.39,1.02-1.2,1.82-2.21,2.21-.41.16-1.03.35-2.16.4-1.23.05-1.6.07-4.71.07s-3.49-.01-4.71-.07c-1.14-.05-1.75-.24-2.16-.4-.51-.19-.97-.48-1.34-.87-.39-.38-.68-.83-.87-1.34-.16-.41-.35-1.03-.4-2.16-.05-1.23-.07-1.6-.07-4.71s.01-3.49.07-4.71c.05-1.14.24-1.75.4-2.16.19-.51.48-.97.88-1.34.38-.39.83-.68,1.34-.87.41-.16,1.03-.35,2.16-.4,1.23-.05,1.6-.07,4.71-.07s3.49.01,4.71.07c1.14.05,1.75.24,2.16.4.51.19.97.48,1.34.87.39.38.68.83.87,1.34.16.41.35,1.03.4,2.16.05,1.23.07,1.6.07,4.71s-.01,3.48-.07,4.71h0Z"/>
      <path class="cls-1" d="m11.66,5.67c-3.31,0-5.99,2.68-5.99,5.99s2.68,5.99,5.99,5.99,5.99-2.68,5.99-5.99-2.68-5.99-5.99-5.99h0Zm0,9.88c-2.15,0-3.89-1.74-3.89-3.89s1.74-3.89,3.89-3.89,3.89,1.74,3.89,3.89-1.74,3.89-3.89,3.89h0Z"/>
      <path class="cls-1" d="m19.29,5.44c0,.77-.63,1.4-1.4,1.4s-1.4-.63-1.4-1.4.63-1.4,1.4-1.4,1.4.63,1.4,1.4h0Z"/>
    </g>
  </g>
</svg>