<?xml version="1.0" encoding="UTF-8"?>
<svg id="Camada_2" data-name="Camada 2" xmlns="http://www.w3.org/2000/svg" viewBox="0 0 23.15 23.26">
  <defs>
    <style>
      .cls-1 {
        fill: #fff;
        fill-rule: evenodd;
        stroke-width: 0px;
      }
    </style>
  </defs>
  <g id="Camada_1-2" data-name="Camada 1">
    <path class="cls-1" d="m19.78,3.38C17.6,1.2,14.71,0,11.62,0,5.27,0,.1,5.17.1,11.53c0,2.03.53,4.02,1.54,5.76l-1.64,5.97,6.11-1.6c1.68.92,3.58,1.4,5.51,1.4h0c6.35,0,11.52-5.17,11.53-11.53,0-3.08-1.2-5.98-3.37-8.16h0Zm-8.15,17.74h0c-1.72,0-3.41-.46-4.88-1.34l-.35-.21-3.63.95.97-3.54-.23-.36c-.96-1.53-1.47-3.29-1.46-5.1,0-5.28,4.3-9.58,9.58-9.58,2.56,0,4.96,1,6.77,2.81,1.81,1.81,2.8,4.22,2.8,6.78,0,5.28-4.3,9.58-9.58,9.58h0Zm5.26-7.18c-.29-.14-1.7-.84-1.97-.94-.26-.1-.46-.14-.65.14-.19.29-.74.94-.91,1.13-.17.19-.34.22-.62.07-.29-.14-1.22-.45-2.32-1.43-.86-.76-1.43-1.71-1.6-2-.17-.29,0-.43.13-.59.31-.39.62-.79.72-.99.1-.19.05-.36-.02-.5-.07-.14-.65-1.56-.89-2.14-.23-.56-.47-.49-.65-.49-.17,0-.36-.01-.55-.01s-.5.07-.77.36c-.26.29-1.01.99-1.01,2.4s1.03,2.79,1.18,2.98c.14.19,2.03,3.1,4.92,4.35.69.3,1.22.47,1.64.61.69.22,1.32.19,1.81.11.55-.08,1.7-.7,1.94-1.37.24-.67.24-1.25.17-1.37-.07-.12-.26-.19-.55-.34h0Z"/>
  </g>
</svg>